<?xml version="1.0" encoding="utf-8"?>
<!-- Generator: Adobe Illustrator 27.2.0, SVG Export Plug-In . SVG Version: 6.00 Build 0)  -->
<svg version="1.1" id="Calque_1" xmlns="http://www.w3.org/2000/svg" xmlns:xlink="http://www.w3.org/1999/xlink" x="0px" y="0px"
	 viewBox="0 0 1200 800" style="enable-background:new 0 0 1200 800;" xml:space="preserve">
<style type="text/css">
	.st0{fill:#282520;}
	.st1{fill:#1A1810;}
	.st2{fill:#1F1C1A;}
	.st3{fill:#221F1D;}
	.st4{fill:#4F4645;}
	.st5{fill:#38332F;}
	.st6{fill:#1F1C1D;}
	.st7{fill:#35302C;}
	.st8{fill:#1A1815;}
	.st9{fill:#1C1917;}
	.st10{fill:#48413E;}
	.st11{fill:#151515;}
	.st12{fill:#12100D;}
	.st13{fill:#2E2925;}
	.st14{fill:#0E0B0A;}
	.st15{fill:#171412;}
	.st16{fill:#110E0E;}
	.st17{fill:#2D2823;}
	.st18{fill:#23211C;}
	.st19{opacity:0.55;fill:#828485;enable-background:new    ;}
	.st20{opacity:0.86;fill:#828485;enable-background:new    ;}
	.st21{opacity:0.7;fill:#828485;enable-background:new    ;}
	.st22{opacity:0.49;fill:#828485;enable-background:new    ;}
	.st23{opacity:0.3;fill:#828485;enable-background:new    ;}
	.st24{opacity:0.52;fill:#828485;enable-background:new    ;}
	.st25{fill:#828485;}
</style>
<path class="st0" d="M536.1,197.3l-7.4-9.6l-1.3,10.2l11.4,62.6l-24.1-49.9l-11.6-8.5v14.7l37.9,79.3l-35.2-53.5l-12-7.6l1.8,10.2
	l37,58.8l-43.7-40.1l-14.3-6.2l3.6,10.7l22.3,20.5l-6.2-1.8l1.3,6.2l14.7,13.8l-0.4,2.2L492,295.7l-5.8-1.3l2.2,5.3l37.9,33.9
	l-33-20.3l-8.7-3l3.8,7.7l38.5,30.7l2-11.6l8.5-5.4l10.2,0.8l1.8,31.8l52.7-1.4l-2-229.4l-4.5,18.3l-0.9,80.6l-12-79.3l-7.6-8
	l-5.8,11.1l-7.4-9.4l-2.9,12l15.6,77.5L552.6,171l-7.6-7.6l-0.4,10.7l18.7,62.4l-18.7-42.8l-7.1-5.8L536.1,197.3z"/>
<path class="st0" d="M655.3,193.7l7.9-6.7l1.1,9l6.1-8.2l2.3,12.6l-11,58.9l24.8-50.3l10.4-6.9v13.5l-37.6,80.7l35.2-54.8l11.6-6.2
	l-3.8,12.8l-33.9,52.9l46.2-40.2l10.7-2.2l-5.2,10.7L698.8,288l7-0.6l-2,5.9l-29.1,31l31.6-28.7l6.7-2.5l-2.1,7.1l-33.9,31.2
	l28.4-19.4l9.6-2l-3.5,8.6L673,348.5l-0.6-10l-11.4-7.7l-9.1,0.8l-1.7,32.5l-48.4-1.3l-1.5-229.4l3.9,17.3l2,83l11.6-81.1l6.9-7.9
	l4.7,9.7l-3.9,30.5l5.7-29.5l7-7.7l2.1,9.9l-13.1,80.3l20.3-65.4l7.6-8.1l1.8,10.7l-19.5,62.8L655.3,193.7z"/>
<path class="st1" d="M525,366.2l3.6,0.6l-12.8,90.1l-14.1,0l-12.3,0l11.2-32.8l8.6-29.4l6.5-22l4.5-4.5L525,366.2z M676.4,367.4
	l-5.8,0.5l15.3,89l14.6,0l11.8,0l-11.5-31.6l-8.6-29.4l-6.5-22l-4.5-4.5L676.4,367.4z"/>
<path class="st2" d="M599.8,456.9l-98.2,0l20.1-58.3l4.5-24.1l0.2-35.8l17.4-0.3l-2.4,57h59.2L599.8,456.9z"/>
<path class="st3" d="M541.6,382.4c1.5,0,115.7-0.9,115.7-0.9l2.2,15.1l-119.1,0.4L541.6,382.4z"/>
<path class="st4" d="M661.9,331.6l-9.5,0.4l5,6.7l15-0.2L661.9,331.6z"/>
<path class="st5" d="M652.4,332.1l-2.2,32.4l7.8,19.2l-0.5-44.9L652.4,332.1z"/>
<path class="st5" d="M445,133.3"/>
<path class="st5" d="M445,133.3"/>
<path class="st6" d="M557.8,241.9L557,240l-3.5-0.2l-2.1,2.1l1.7,2.6l1.6,0.2l2-0.8L557.8,241.9z"/>
<path class="st7" d="M621.6,363l9.8,0.4l35.2-42.4l6.7,5.1l2.2-2.2l-6.9-6.9l10.7-14l1.7-1l0.3-1.4l-0.7-1.7l-1.5-0.5l-1.3,0.6
	l-0.8,1.9l-11.8,12.9l-7.2-6.7l-3.1,3.6l5.8,4.7L621.6,363z"/>
<path class="st7" d="M634.7,241.8l2.6-0.3l3.7,1.3l-1.3,2.9l-1.9,2.3l-1.2,18.9l11.9,4.6v4.6l-11.8-1.1l-14.9,88.5l-8.8-0.3
	l14.9-89.9l-11.8-2l-0.1-3l14.1-1.9l5.3-19.8L634.7,241.8z M608.5,362.2l-3.3-97.9l5,2.7l-0.7-6.5l-6.9-1.8l-1.3-18.2l2.7-0.8
	l-2.8-2.6l-2.7-0.1l-3,3.5l2.2,0.1l0.2,18.6c0,0-7.5,2.7-7.6,3c-0.1,0.3,0.7,5.5,0.7,5.5l5.1-2.7l3.6,97.3L608.5,362.2z
	 M579.1,363.3l6.2-0.3l-14.4-90.1l9.1-1.6l-1.2-3.7l-9.8,0.8l-2.6-18.6l1.8-0.8l-2.2-3.5l-6.8,1.6l-0.1,4.2l2.2-0.7l3.2,18.5
	l-10.5,1.9l1,3.8l9.2-1L579.1,363.3z M571.1,359.5l-2.2-15.3l-24.1-39.2l4.8-3.1l-1-2.4l-6.3,2.6l-11.5-15.6l0.9-0.7l-2.3-2.8
	l-2.6,1.7l1.4,4.1l1.1-0.6l9.5,16l-5,4.6l1.3,2.2l5-2.8L571.1,359.5z"/>
<path class="st8" d="M600.4,327.9l-3.3,0.7l-4.1,1.8l-2.3,1.8l-0.2,2.9h7.5l1.3,27.6l8.2-0.1l0.1-28.2h6.9l0.4-2.9l-5.2-3l-4.8-0.7
	l-0.7-16.3l0.8-1l0.1-1.5l-2.2-1.4l-1.6-0.1l-1.8,0.8l-1.1,1.3l0.7,1.6l0.8,0.6L600.4,327.9z M625.5,363.3l9.3-50.2l-8.6-1.3
	l1.1-6.4l10.6,1.7l4.9-21.8l-1.9-0.5l5.2-5.7l2.2,7.1h-1.5l-4.2,21.6l9.7,1.8l-0.9,6.6l-9.9-2.1l-8.2,49L625.5,363.3z"/>
<path class="st8" d="M589.1,363l5.9-0.2l-4.1-74l8.3-0.7l-0.7-6.8l-8.2,0.7l-4.3-25.4l1.9-0.6l-0.4-3.4l-7.6,0.6l0.4,3.4l2.4-0.1
	l0.9,26l-9.4,1.2l0.9,6.4l9.4-1L589.1,363z"/>
<path class="st8" d="M579.4,305.5l-2.2-5.6l-8.5,0.7l-2.7-10.7l-0.9-4l-3.1,0.2l2.2,16l-10,3.3l-0.4,4.5l11.1-2.2l6.8,55.8l7.5-0.3
	l-9-55.7L579.4,305.5z"/>
<path class="st9" d="M610.5,362.8l8.2,0.1l1.6-64.3l2.9-0.2l3.3-6.2l-8.7-0.7l-0.7-22.9h2.2l0.9-6.7h-8.5l-0.2,6.7h3.6l-1.6,22.7
	l-9.6,0.9l2,5.1l4.2,1.1L610.5,362.8z"/>
<path class="st10" d="M541.8,382.7l115.6-0.7l-6.9-18.1l-48.6-1.1l-52.2,1.5L541.8,382.7z"/>
<path class="st3" d="M600.3,397l0.2-14.5l56.8,0l1.1,13.6L600.3,397z"/>
<path class="st4" d="M661.1,330.7l-9.5,1l5.2,7.1l15.8-0.2L661.1,330.7z"/>
<path class="st2" d="M676,399.9l16.9,57l-93.3,0l0.2-60.1l57.7-0.5l-0.7-57.6l15.9-0.2L676,399.9z"/>
<path class="st5" d="M651.7,331.7l-2.1,32.8l7.7,17.5l-0.5-43.3L651.7,331.7z M549.9,364.4l-2.1-32l-4.6,6.2l-1.7,44.5L549.9,364.4z
	"/>
<path class="st4" d="M526.4,338.6l9.5-7.4l12.5,1l-4.8,6.5L526.4,338.6z"/>
<path class="st0" d="M561,456.9l-4.1-43.7l4.6-10.8l4.2,9.8l5.2,44.7L561,456.9z M588.6,456.9l-1.5-41.9l4.3-13.9l5,12l3,43.8
	L588.6,456.9z M615.8,412.5l-3.9,8.8l2,33.6l8.5-0.1l-2.4-34.7L615.8,412.5z"/>
<path class="st11" d="M643.7,406.5l3,1.8l0.4,3.7l8.5,1l-0.3,3l-7.3-0.4l-1.5,7.6l-3.7-0.3l0.4-6.5l-7.9-1.9l0.7-3.1l6.4,0.7
	L643.7,406.5z M549.5,419.1l-4.2-0.6h-5.2L540,415l4.5,0.1l1.9-2.1l-0.1-8.2l-1.8-2.1l0.4-2.4l1.9-0.4l2.4,0.3l1.5,2.8l-1.6,1.8
	l0.7,10.4l5.6-1.3l0.7,3.7L549.5,419.1z M576.2,430.4l-0.7-9.4L575,419l-3.4,0.1l-0.4-4l4-0.3l0.1-8.3L574,405v-1.9l2.1-0.6l2.2,1
	l0.1,1.8l-0.9,1.2l0.1,7.6l5.8,1.8l3.1,1.2l-0.6,3.1l-6.8-0.3l1,9.7L576.2,430.4z M607.9,456.9H604l-0.9-34.2l-3.9-3.3v-1.8l4.5,0.3
	v-13.5l-3-0.4l0.1-2.1l8,0.3l-0.1,2.5l-3.1-0.1l0.7,12.8l6.7,1l-1.3,3.4l-4.9,1L607.9,456.9z M625.5,456.9l-6.9,0l0.6-41.8l-2.8-0.4
	l1.9-4.9l2.5-0.1l-0.1-6.8l-1.6-0.4v-1.9l5.5,0.3l-0.4,1.8l-1.5,0.3l0.4,6.8l1.9,0.1l2.4,4.5l-2.7,0.3L625.5,456.9z"/>
<path class="st12" d="M505.7,408.9l-3.9-9.9c0,0,3.6-0.4,3.5-1.2c-0.1-0.8-6.7-21.7-6.7-21.7l5.8-0.9l6.8,18.8l-4.3,15.1
	L505.7,408.9z"/>
<path class="st13" d="M508.2,456.9l4.8-46l4.1-9.5c0,0,3.5,7,3.7,7.8c0.2,0.8-2,47.7-2,47.7L508.2,456.9z M524,456.9
	c0,0,1.2-52.4,1.5-52.7c0.3-0.3,5.5-7.5,5.5-7.5l5.6,7.4l0.5,52.8H524z"/>
<path class="st12" d="M557.6,456.9l-5.4-37.8l-5.1-6.6l-5.2,8.1l1.9,36.2L557.6,456.9z M560.9,456.9L557,429l0.9-9.7l6.5,7.4
	l6.9,30.2L560.9,456.9z M578.7,456.9h9l-0.1-3.6h2.3l-0.2-4.5l-3.7-0.2l-2.3-10.6l0.9-0.6l-0.9-3.9l-5.1,0.4l0.1,3.1l1.1,0.2
	l0.7,11.6l-5.5,0.7l0.3,4.2l2.7-0.1L578.7,456.9z"/>
<path class="st12" d="M605.7,445.3l-4.9,0.3v11.2l-7.3,0l-0.1-10.1l-4.2-0.2l-2.6-3.8h8.1l0.8-13.1l-1.1-2.3l0.2-2.6l2.7-2l2.3,2.8
	l0.4,1.8l-1,2l0.4,12.9l6.8,0.3v1.6L605.7,445.3z M617,456.9l-7.1,0l-0.4-2.1l-4.5-1.9V451l5.5,0.6l1.6-11.8l-1.1-0.6l0.7-5.5l6.8,1
	l-0.8,5.9l-1.3-0.2l-0.3,11.6l6.2,1.9l-0.4,1h-4.2L617,456.9z M650.1,456.9l-7.9,0l-0.5-31l-3-0.4l-0.4-5.3l5.5-0.2l0.1-12.9
	l-2.7-0.2l0.4-7.6l7.5,0.3l-0.1,7.6h-1.2l-0.2,12.4l4.2,0.1l0.3,6.3l-2.5,0.4L650.1,456.9z"/>
<path class="st14" d="M697.8,456.9l-9.1-31.9l-6.7-8.8l-2.2,13.1l7.4,27.5H697.8z"/>
<path class="st15" d="M536.2,413.3l-6.8-13.5l2.1-35.2l-2.8-0.1v-4.6h3.1l0.9-11.3l-2.4-0.3l0.6-7l8.3,0.1l0.1,7.7l-3-0.3l-0.4,11
	l4.6,0.3l-0.3,3.9l-3,0.4L536.2,413.3z"/>
<path class="st12" d="M638.7,456.9l-1.8-40.3l-5.3-5.1l-5.5,5.6l-1,39.9L638.7,456.9z"/>
<path class="st16" d="M567.3,420.6l1.3,14.7l5.2,13l2.8-5.9l-3.1-21.7h3.2l-0.1-4.5l-4.7-1l-1-9.5l2.4-0.2l-0.8-6.1l-6.5,0.1l-1,6.6
	l1.9-0.3l0.9,10l-4.2,1.2l-0.2,3.8L567.3,420.6z"/>
<path class="st14" d="M662.3,445.5c0-0.6-0.1-18.3-0.1-18.3l-3.7-4.8l-4.6,4.9l-1.5,29.5l10.2,0L662.3,445.5z M658.9,351.2l0.3,5.3
	l2.1,0.2l2.1,51.7l7.8,12.8l1.1-3.1l-3.2-61.6l1.9-0.3l-0.6-5.3l-3.2-0.2l-0.7-4.5l0.6-1.4l-0.3-1.7l-1-1.2l-2.1-0.1l-1.3,1.3v2.3
	l1.6,1.2l-0.3,4.3L658.9,351.2z M703.8,439.3l4.9-4.9l1.2,1.2l2.7-3.6l-2.7-4l-4.2,1.6l0.7,1.5l-5.9,4.3l-1.2-3l-4.5,3.3l6.1,11l4-5
	L703.8,439.3z M694,415.2l-3.1-2.7l-3.6-0.7l-1.2,1.9l5.3,6.1l-4.6,1.8l3.3,6.8l2.5-2.7l1,5l4.3-1.3l-1.5-7.4l12-6.2h2.4l2.4-2.4
	l-0.6-2.7l-2.8-1.2l-3.4,1l-0.4,1.8l0.6,0.9l-9.5,4.2l-1.2,0.5L694,415.2z"/>
<path class="st14" d="M696.8,404.4l4,0.4l-0.3,5.2l-2.4,0.6l-1,13.4l-3.3-3.4l-2.7-17.7l0.7-7.6l5.3,0.6L696.8,404.4z M674.3,380.8
	l4.5-6.7l-3.1-2.2l3.3-4.9l3.6,2.4l4.8-6.8l-0.4-1.6l0.9-1.8l2.4-0.1l1.5,1l0.4,1.8c0,0-0.4,1.8-0.9,1.9c-0.4,0.1-1.5,0.4-1.5,0.4
	l-3,7.1l4,3.4l-2.7,4.3l-3.7-1.8l-5.2,7.4L674.3,380.8z"/>
<path class="st0" d="M513.4,354.7l1.3,5.7l2.7-0.6l2.2,11l6.9-3.3l-0.2-16.8l-1.9,0.4l-1.6-6l-5.7-4.2l2.4,11.9L513.4,354.7z"/>
<path class="st13" d="M517.6,383.8l2.2,3.7l-2,11l-6.5-10.9l-3.6,2l-2.7-3.7l4.3-3.3l-5.3-12.4l-1.2,0.6l-3.3-4.3l6.8-3.5l2.7,4.8
	l-1.1,0.9l6.6,10.6l5.6-3.2l2,4.3L517.6,383.8z M498.2,401.5l-4.5,4.5l-15.8-2.6l-0.8,3.5l14.1,7.1l0.7,6.9l5.5-0.6l0.3-3.2l9.9,3.3
	l1.6-11.5l-8.2-2.8l1.2-1.7L498.2,401.5z"/>
<path class="st13" d="M503.8,435l-2.1,6.8l-8.9-7.4l-1.9,2.7l-5.3-4.7l3.3-3.7l-8.4-9l-1.3,1.1l-3-2.6l4.5-4.5l3,2.8l-1.2,1.2
	l9.6,7.6l3.5-3l4.1,4.5l-1.7,1.7L503.8,435z"/>
<path class="st13" d="M445,133.3"/>
<path class="st17" d="M703.6,375.4l-1.2,1.8l-0.3,2.2l-3.4,2.4l-3.1,2.4l-2.2,1.9l-1.5,1.8l-2.8-1.6l-2.8-1.2l-2.5-0.9l0.1,3.7
	l3.4,1.8l2.8,2.7l2.2,4.3l0.6,4.5l4.5-0.9l-0.7-4.2l-2.1-4.9l5.3-3.6l3.3-2.5l1.9-2.4l3.3-0.1l1.9-3.1l-0.4-2.8l-2.2-1.8
	L703.6,375.4z"/>
<path class="st13" d="M678.8,456.9l-10.3-44.3c0,0-5.2-7.4-5.2-6.9c0,0.4-1.8,8.8-1.8,8.8l9,42.5L678.8,456.9z"/>
<path class="st18" d="M576.9,441.1l-4.9-5.6l40.7-27.5l1.6-4.9l-4.3-0.7l-41.4,28.5l-4.3-5.8l-1.9,1.2l0.4,9.1l-9.7,8.2l-1.8,0.1
	l-1.6,0.9l0.1,2.1l1.5,1.6l1.8-0.1l1-1.8l11.1-8.3l10.4,5L576.9,441.1z"/>
<path class="st18" d="M667.6,447l-2.2,0.3l-13.2-7.3l1.8-5.5l-3.1-2.2l-0.9,2.7l-0.7,2.8l-52.9-25.5l-6.5-0.6l0.9,3.9l56.3,28.8
	l-1.3,2.8l-2.7,1.9l0.9,1.8l3-1.3l1.9-1.8l1.5-2.7l13.5,5.5l1.3,2.4l2.4,0.9l2.2-1.2l1.2-2.5l-0.9-2.2L667.6,447z"/>
<path class="st19" d="M485.9,311.4l5.7,3.3l34.7,22.4l1.8-1.1l-36-22.3L485.9,311.4z M487.5,295.4l3.7,2.4l22.3,17.8l-3.5-4.9
	l-18-14.1L487.5,295.4z M500.9,289.9l-5.5-1.5l5.3,4.2l3.3,0.9L500.9,289.9z M476.6,259.6l55.3,45.9l-43.2-40.3L476.6,259.6z
	 M494.7,236.7l33.7,42.6l-22.9-35.1L494.7,236.7z M512.3,214.2l-7.6-8.5l8.5,6.2l29.4,61.9L512.3,214.2z M539,304.5l2.3-0.2l0.7-1.8
	l6.2-2.5l0.3,1l-13.5,8.7l-0.5-0.7L539,304.5z M529.2,283.7l-1.8,1.3l0.5,1.1l2.1-1.5L529.2,283.7z M564.8,304l-10.3,3.7l0.3-1.9
	l9.9-3l4.7-1l7.2-0.8l0.7,1.9l-7.6,0.1L564.8,304z M598.1,283.6l-8,0.5l-1.9,1.4l-3.9-1.3l-8.7,1.4l-0.2-1.3l9.1-1.1l3.3,0.5l2.3-1
	l7.9-0.8L598.1,283.6z M566.7,247.9l-7.1,1.3l0.1-1.5l5.9-1.3L566.7,247.9z"/>
<path class="st20" d="M578.3,268.3l0.4,1.4l-23.6,3.4l-0.3-1.3l10.3-1.9l4.3-0.7L578.3,268.3z"/>
<path class="st19" d="M586.9,253.5l-6,0.2l0.2,1.3l6-0.4L586.9,253.5z M618.8,264.4l-5.7,0.2l0.1-1.7h5.9L618.8,264.4z M605.3,293.1
	l9-0.6l2.3,0.7c0,0,0.7-0.7,1-0.7c0.3,0,7.6,0.2,7.6,0.2l-0.9,2l-6.1-0.4l-1.9,0.9l-1.9-1.6l-8.4,0.8L605.3,293.1z M615.3,332.9
	l0.2-1.2l-7.6-2.3l-3-0.6h-4.7l-5.1,1.2l-4.8,3l1.4,0.8l4.6-2.9l4.8-1l3.9-0.1L615.3,332.9z M604.4,309.5l-0.8,1l-1.4-1.6l-2.8,0.7
	l1.2-1.3h1.9L604.4,309.5z M627.6,308.6l0.2-1.9l23.3,3.7l-0.3,2.1L627.6,308.6z M643.3,283.5l2.7-2.7l0.8,3.9L643.3,283.5z
	 M602.1,239.7l-4.8,0.1l1.4-1.8l1.7-0.1L602.1,239.7z M591.7,265.2l-0.3-2l7.1-3.3l3.1-0.3l8.5,2.6v1.8l-8.2-2.8l-3.5-0.2
	L591.7,265.2z"/>
<path class="st21" d="M620.4,268.1c0.8-0.1,9.7-1.1,9.7-1.1l6.2,0.6l12,4l-0.4,1.6l-11.7-4.2l-6.2-0.3l-9.7,1.2L620.4,268.1z"/>
<path class="st19" d="M635.8,242l2.3-0.4l1.1,0.3l0.2,1.9l-3.1-0.4L635.8,242z M658.4,307.9l6.6,6.1l9.4,9l-0.6,0.9l-16.5-14.3
	L658.4,307.9z M678.8,299l1.7-0.1l1,1.3l-0.3,1.3l-1.6-0.7L678.8,299z M529.5,194.1l-0.2-3.3l6.9,8l-0.2,2.2L529.5,194.1z
	 M542.6,197l-4-6l5.1,4l19.6,46.1L542.6,197z"/>
<path class="st22" d="M657.1,382.3v-1.6L542.7,381l-0.8,1.9L657.1,382.3z"/>
<path class="st19" d="M567.8,159.2l-5.1-9.1l6.5,8.2l18,80L567.8,159.2z M580,154.7l-4-7.4l5.7,6.2l12.1,79.5L580,154.7z M552,171.2
	l-6-5.7l4.7,6.4l22.9,67L552,171.2z M652,332.2l9.1-0.4l11.2,6.4l-11.1-7.4l-9.6,1.1L652,332.2z"/>
<path class="st23" d="M520.5,424.3l-1.5-15.7l-1.8-3.6l-4.5,6.8l4.5-10.1l3.9,6.5L520.5,424.3z"/>
<path class="st22" d="M614.1,403.5l-4.2-1l-41.3,28.4l0.4,0.8l40.9-28.5L614.1,403.5z M553.5,444.3l-0.4-0.7l9.8-8.1l0.6,0.8
	L553.5,444.3z M562.5,427.7l-0.2-1.4l1.9-1.2l0.7,0.9L562.5,427.7z M591,411.8l4.8,0.1l-1.3,1.1L591,411.8z M601.7,415.1l1.4-0.5
	l45.8,23.4l-0.1,1.1L601.7,415.1z M650.4,433.7l0.4-1.2l3,2.1l-0.4,1.2L650.4,433.7z M652.1,441.2l13.2,7.1l2.7-0.2l2,0l-2.4-0.8
	l-2.4,0.1l-12.9-7.1L652.1,441.2z"/>
<path class="st23" d="M566.2,401.9l0.4-2.1h5.6l0.2,2.1H566.2z M571.8,415.2l-3.8,0.5l-4.3,1.4l0.1,1.1l12.9-0.5l-0.1-1.4
	L571.8,415.2z"/>
<path class="st22" d="M477.9,404.5l0.2-1.1l15.6,2.6l-0.3,1.4L477.9,404.5z"/>
<path class="st23" d="M497.5,402.5l3.6,3.7c0,0,1.4-1.6,1-1.8c-0.4-0.2-3.7-3-3.7-3L497.5,402.5z M502,408.4l0.5-1.6l6.8,2.2l-0.3,2
	L502,408.4z"/>
<path class="st22" d="M481.3,414.6L477,419l-0.7-0.6l4.4-4.5L481.3,414.6z M486.5,433.3l-0.9-0.9l9.8-10l1.1,1.1L486.5,433.3z"/>
<path class="st23" d="M502.9,401.5l-0.4-2l8-4l-0.4,2.2L502.9,401.5z"/>
<path class="st22" d="M498.5,376l5.8-0.9l1,2.6l-6.1,0.5l-0.4-1.2"/>
<path class="st23" d="M501.3,368.2l-1.1-1.6l6-3.1l0.7,1.3L501.3,368.2z M506.5,387.8l-1.4-1.9l14.8-10l0.9,1.9L506.5,387.8z"/>
<path class="st22" d="M518.9,371.2l-3.2,1.5l-0.9,3.5l2.4-3l4.7-1.8l4.4-1.6l0.3-2.2L518.9,371.2z M515.6,357l-0.2-1.3l11.4-3.8v1.8
	L515.6,357z"/>
<path class="st23" d="M541.8,420.7l5.2-8l-3.9,8.2l-0.7,10.7L541.8,420.7z M551,420.2l-2.1-5.4l3.3,4.3l1.7,12.6L551,420.2z
	 M558.6,421.8l-1.6,5.6l0.9-8l3.9,4.5L558.6,421.8z M588,445l-0.4-1.6l18.7-0.7l-0.7,1.3L588,445z M594.9,425.8l1.6-1.9l0.9-1
	l2.4,3.3l-2.4-1.6L594.9,425.8z M612.5,436.3v-1.3l4.9,0.9l-0.4,1.3L612.5,436.3z M661.4,427.5l0.7,13.7v-13.8l-3.6-4.7l-4.6,4.8
	l-0.3,5.8l0.6-5.3l4.2-4.7L661.4,427.5z M529.4,402.7l-2.7,6.5l-1.5,41.3l-1.2,0.9l1.2-42.5l3.9-9.5l7.1,14l0.3,23.2l-1.8-22.6
	L529.4,402.7z"/>
<path class="st22" d="M696.4,437.2l-0.7-1.2l3.1-2.4l0.9,1.7L696.4,437.2z M706.7,430l0.9,1.8l1.8-1.1l-0.2-1.3L706.7,430z"/>
<path class="st23" d="M678.6,369.9l0.2-1.1l10,6.2l-0.4,1.1L678.6,369.9z"/>
<path class="st22" d="M659.8,353.1l-0.1-1.4l10-0.2l0.1,1.4L659.8,353.1z M694,392.4l-2.6-4.1l-5.6-2.8l-1.1,1.6l4.7,1.6l3.6,3.8
	H694z M693.4,387.6l1.1,0.4l8-5.6l-1.1-1.3l-4.5,2.7L693.4,387.6z M708.8,377.7l-1.5-1.9l-3.3,0.3l-1,2l2.9-0.9l2.2,2.7L708.8,377.7
	z"/>
<path class="st23" d="M639,422.1l0-1.4l12.2-0.4l-0.1,1.6L639,422.1z M641.9,402v-1.3l6,0.2v1.3L641.9,402z M637.7,432.2l-0.8-15.7
	l-5.3-5.1l-5.3,5.6l-0.3,9.1l1.1,0.5l0.7-8.4l3.8-4.5l4,3.8l1.1,14L637.7,432.2z M681.7,435.9l-2-6.4l2.2-13l6.7,8.8
	c0,0,3.3,11.7,2.2,9.7c-1.1-2-3.8-10-3.8-10l-4.5-5.8l-0.9,8.9L681.7,435.9z M663.1,414.1l3.6,24.1l-5.1-23.8l1.8-8.8l5.3,7.1
	l7.6,32.5l-8.7-30.5l-3.1-5.6L663.1,414.1z M686.9,412.3l-0.1,1.6l3.9,0.8l3.1,4l2.9,8.7l-0.6-4.8l-1.3-4.6l-4.3-4.9L686.9,412.3z"
	/>
<path class="st22" d="M697.6,419.6l-0.7-1l8.9-4.1l0.2,0.8L697.6,419.6z M707.2,411.1l2.4-0.7l2.4,1.2l-2.7-0.1l-1.4,0.9l-0.7,1.4
	l-0.6-1.4L707.2,411.1z M682.2,378.6l-2.1,0.1l-1,1.9l-0.4-1.3l1-1.9l1.2,0.2L682.2,378.6z"/>
<path class="st24" d="M705.1,316l-26.6,16.4l26.3-18.5l8.2-1.8L705.1,316z M675,324.8l30.8-27.9l5.5-2.1l-1.5,2.2l-3.3,0.8
	L675,324.8z M702.6,290.7l-4.3,0.1l-7.6,5.2l7.3-6.7l6.1-0.5L702.6,290.7z M722,262.3l-7.2,1.9l-45.9,37.3l45.5-39.4l9-2L722,262.3z
	 M694.5,242.8l-33.9,53.1l35.6-51.4l7.9-6.8L694.5,242.8z M686.7,210.4l8.7-5.7l-7.4,7.4l-28.4,55.1L686.7,210.4z M669.5,189.8
	l-1.2,4.2l-3.2,5.1l-1.5-0.9L669.5,189.8z M657.3,196.6l4.5-7l-6.2,5.3l-15.5,35.6L657.3,196.6z M647.7,173.6l6.2-7l1.6,9.2
	l-0.8,2.4l-1.5-9.5l-4.5,5.6L627,237.7L647.7,173.6z M631.5,156.5l5.8-6.9l-3.2,7.7l-16.3,72.9L631.5,156.5z M620.3,154.5l3.9-9.5
	l-5.8,8.4L606,235.6L620.3,154.5z M597.5,153.7l-2.5,78l1-78.3l3.9-16.5l3,14.5l2.2,79.7l-3.8-79.4l-1.4-11.2L597.5,153.7z"/>
<path class="st23" d="M679.1,400l-2.8-0.5l-1-3.7l1.5,0.6l3.3,2.2l3.4,3.3l2.1,2.8l-0.3,1.5l-2.5-3.4L679.1,400z"/>
<path class="st22" d="M529.1,360.3c0.2,0.1,10.9,0.2,10.9,0.2l-0.1,1.2l-10.8-0.1L529.1,360.3z"/>
<path class="st19" d="M531.2,344.7l0.1-2.6l7.1,0.2l0.1,2.4L531.2,344.7z"/>
<path class="st22" d="M688,361.1l-0.3,1.3l-0.4-1.4l0.6-1.3l1.9-0.1l1.5,0.7l-1.9,0.1l-1.2,0L688,361.1z M663.6,343.5l-0.6,1.6
	l0-1.9l1-1h1.6l0.9,1.1l-1.3-0.6l-1.2,0L663.6,343.5z"/>
<path class="st25" d="M676.6,302.3l-0.2-0.6l-10.7,11.5l0.7,0.6L676.6,302.3z M536.2,332.7l-9.5,5.8l9.1-7.1l12.4,1L536.2,332.7z
	 M445,133.3 M445,133.3"/>
</svg>
