<?xml version="1.0" encoding="utf-8"?>
<!-- Generator: Adobe Illustrator 27.4.0, SVG Export Plug-In . SVG Version: 6.00 Build 0)  -->
<svg version="1.1" xmlns="http://www.w3.org/2000/svg" xmlns:xlink="http://www.w3.org/1999/xlink" x="0px" y="0px"
	 viewBox="0 0 1200 800" style="enable-background:new 0 0 1200 800;" xml:space="preserve">
<style type="text/css">
	.st0{fill:#F3F3F3;}
	.st1{display:none;fill:#FFFFFF;}
	.st2{fill:#FFFFFF;}
	.st3{fill:#282520;}
	.st4{fill:#1A1810;}
	.st5{fill:#1F1C1A;}
	.st6{fill:#221F1D;}
	.st7{fill:#4F4645;}
	.st8{fill:#38332F;}
	.st9{fill:#1F1C1D;}
	.st10{fill:#35302C;}
	.st11{fill:#1A1815;}
	.st12{fill:#1C1917;}
	.st13{fill:#48413E;}
	.st14{fill:#151515;}
	.st15{fill:#12100D;}
	.st16{fill:#2E2925;}
	.st17{fill:#0E0B0A;}
	.st18{fill:#171412;}
	.st19{fill:#110E0E;}
	.st20{fill:#2D2823;}
	.st21{fill:#23211C;}
	.st22{opacity:0.55;fill:#828485;enable-background:new    ;}
	.st23{opacity:0.86;fill:#828485;enable-background:new    ;}
	.st24{opacity:0.7;fill:#828485;enable-background:new    ;}
	.st25{opacity:0.49;fill:#828485;enable-background:new    ;}
	.st26{opacity:0.3;fill:#828485;enable-background:new    ;}
	.st27{opacity:0.52;fill:#828485;enable-background:new    ;}
	.st28{fill:#828485;}
</style>
<g id="derrière">
</g>
<g id="devant">
	<path class="st0" d="M626.8,454.9c-3.9,0-7.7,0-11.6,0c-0.4,0-0.8-0.1-1.3-0.1c-5.3,0-10.7,0-16,0c-41.2,0-82.4,0-123.6,0
		c-0.4,0-0.9,0-1.5,0c0.4-1.2,0.7-2.2,1.1-3.2c1.9-5.3,3.8-10.7,5.6-16c0.1-0.4,0.1-1-0.1-1.3c-0.9-0.9-2-1.6-3-2.5
		c-0.7,1-1.3,1.8-2,2.8c-1.8-1.6-3.6-3.2-5.5-4.8c1-1.1,1.8-2.1,2.7-3c0.6-0.6,0.6-1,0-1.6c-1.8-1.8-3.5-3.6-5.3-5.5
		c-0.9-1-1.9-1.9-2.8-2.9c-0.6,0.4-1,0.7-1.5,1c-1-0.9-2-1.8-2.8-2.5c1.6-1.6,3.1-3.1,4.6-4.7c1,0.9,2,1.8,3,2.7
		c-0.4,0.5-0.8,0.8-1.2,1.3c3.4,2.6,6.7,5.2,10,7.7c1.3-1,2.5-2,3.7-3c1.4,1.5,2.8,2.9,4.3,4.5c0.9-2.9,1.7-5.6,2.6-8.4
		c-1.6-0.5-3.1-1-4.7-1.5c-0.1,1.2-0.3,2.2-0.4,3.3c-1.9,0.2-3.8,0.4-5.7,0.6c-0.2-2.1-0.5-4-0.6-5.9c-0.1-0.8-0.3-1.3-1.1-1.7
		c-3.7-1.8-7.4-3.6-11-5.4c-3-1.5-3-1.5-2-4.6c0-0.1,0.1-0.1,0.2-0.2c0.3,0,0.6,0,1,0.1c4.7,0.8,9.4,1.5,14.1,2.3
		c0.9,0.2,1.6,0,2.2-0.7c1.2-1.3,2.5-2.5,3.8-3.8c1.5,1.1,2.8,2,4.2,3c-0.4,0.6-0.7,1.1-1.1,1.8c1.4,0.5,2.7,0.9,4.2,1.4
		c-1.2-3.1-2.3-5.8-3.5-8.7c0.7-0.1,1.3-0.2,1.9-0.4c1.8-0.4,1.9-0.6,1.4-2.2c-1.9-5.9-3.8-11.9-5.7-17.8c-0.3-1-0.6-2-0.9-3.1
		c2.1-0.3,4.1-0.6,6-0.9c1.1,3,2.3,5.9,3.4,8.9c0.7-0.5,1.2-0.9,1.8-1.3c-1.9-4.2-3.7-8.4-5.5-12.6c-0.5,0.2-0.9,0.3-1.3,0.5
		c-1.1-1.4-2.2-2.9-3.4-4.4c2.5-1.2,4.8-2.4,7.2-3.6c1,1.7,1.9,3.3,2.9,5c-1.5,0.6-0.9,1.4-0.3,2.2c0.7,1,1.3,2.1,2,3.1
		c1.1,1.8,2.2,3.5,3.5,5.5c0.2-0.6,0.4-1,0.4-1.3c0.7-3,1.9-5.7,4.5-7.6c0.3-0.2,0.5-0.8,0.5-1.1c-0.6-3-1.2-5.9-1.8-9
		c-1,0.2-1.9,0.3-2.9,0.5c-0.5-2-0.9-3.8-1.3-5.8c2.1-0.7,4.2-1.3,6.4-2c-0.8-3.8-1.5-7.5-2.3-11.1c-0.1-0.6-0.5-1.3-1-1.7
		c-9-7.1-18.1-14.2-27.2-21.2c-1.5-1.1-2.6-2.4-3.3-4c-0.7-1.5-1.5-3-2.3-4.5c-0.1-0.3-0.2-0.6-0.4-1c0.9,0.3,1.7,0.5,2.4,0.8
		c3,1.1,6.1,1.8,8.8,3.5c9.8,6,19.7,11.9,29.6,17.8c0.4,0.3,0.9,0.5,1.4,0.8c-0.2-0.5-0.5-0.8-0.8-1.1
		c-11.6-10.1-23.1-20.3-34.8-30.3c-2.6-2.2-3.8-4.8-5-7.9c1.3,0.3,2.5,0.6,3.7,0.8c1.7,0.2,3.1,1,4.5,2.1
		c5.2,3.9,10.4,7.8,15.6,11.6c0.3,0.2,0.6,0.4,0.9,0.6c0.8-1.5,0.2-2.3-0.8-3.3c-4.4-4-8.8-8-13.1-12c-0.3-0.3-0.8-0.6-0.9-1
		c-0.5-2-0.9-4-1.4-6.2c2.1,0.6,3.9,1.1,5.8,1.6c0.1-0.1,0.1-0.2,0.2-0.3c-0.3-0.3-0.7-0.6-1-0.9c-7-6.3-14-12.5-20.9-18.8
		c-0.5-0.5-1-1.1-1.2-1.8c-1-2.8-2-5.7-3-8.5c-0.1-0.4-0.2-0.8-0.4-1.4c5.1,2.1,9.9,4.2,14.7,6.2c0.4,0.2,0.7,0.5,1,0.7
		c13.8,12.4,27.6,24.8,41.5,37.2c1,0.9,1.9,1.7,2.9,2.6c-0.1-0.5-0.3-0.9-0.5-1.3c-11.8-18.4-23.6-36.7-35.5-55.1
		c-1.3-2.1-2.4-4.2-2.7-6.6c-0.2-2.3-0.8-4.5-1.2-7c0.5,0.3,0.9,0.5,1.2,0.7c3.5,2.1,7,4.3,10.4,6.5c0.6,0.4,1.2,1,1.7,1.6
		c11,16.2,21.9,32.5,32.8,48.7c0.7,1.1,1.5,2.2,2.2,3.3c-0.1-0.7-0.3-1.2-0.6-1.8c-12.5-25.6-25-51.2-37.5-76.8
		c-0.3-0.6-0.4-1.2-0.4-1.9c0-3,0-6.1,0-9.1c0-1.6,0-3.2,0-5c0.5,0.3,0.9,0.5,1.2,0.8c3.4,2.4,6.7,4.8,10,7.2c0.6,0.4,1.1,1,1.4,1.6
		c6.7,13.5,13.4,27,20,40.5c1.4,2.9,2.9,5.8,4.3,8.7c0-1.4-0.3-2.8-0.5-4.1c-3.2-17-6.3-34-9.5-51c-0.8-4.4-2-8.7-0.9-13.2
		c0.4-1.6,0.5-3.3,0.8-5.3c2.7,3.4,5.1,6.5,7.7,9.8c0.5-3.3,1-6.4,1.5-9.6c2.3,1.9,4.5,3.6,6.6,5.3c0.5,0.4,1,1,1.3,1.6
		c4.9,10.9,9.8,21.8,14.6,32.7c1.2,2.7,2.4,5.4,3.6,8.1c0.1-0.5,0-0.9-0.1-1.3c-6-19.7-12.1-39.4-18.1-59.1
		c-0.3-1.1-0.3-2.2-0.4-3.4c0-1,0.1-2,0.1-3.1c0.1-1.9,0.1-3.7,0.2-5.8c0.4,0.3,0.5,0.4,0.7,0.5c2.3,2.2,4.6,4.5,6.8,6.7
		c0.4,0.4,0.6,0.9,0.8,1.4c6.8,19.8,13.7,39.7,20.5,59.5c0.5,1.5,1,2.9,1.5,4.3c0.2-0.3,0.2-0.5,0.1-0.8c-0.6-3.1-1.3-6.3-1.9-9.4
		c-4.2-20.2-8.4-40.5-12.5-60.7c-1.3-6.4-1.3-6.4,0.3-12.7c0.3-1,0.5-2,0.7-3c0.2-0.9,0.5-1.8,0.8-2.9c2.6,3.3,5.1,6.3,7.7,9.6
		c2.1-3.9,4.1-7.5,6.1-11.4c2.5,2.6,4.9,5,7.2,7.5c0.4,0.5,0.8,1.1,0.9,1.8c0.4,1.8,0.6,3.6,0.9,5.5c1.7,11.1,3.4,22.2,5.1,33.3
		c1.6,10.6,3.3,21.2,4.9,31.9c0.4,2.7,0.8,5.4,1.3,8.1c0.2-0.2,0.3-0.5,0.3-0.7c0.1-3.9,0.1-7.7,0.2-11.6c0.1-7.3,0.2-14.6,0.2-21.9
		c0.1-12.3,0.2-24.5,0.4-36.8c0.1-4.9-0.3-9.8,1.2-14.6c1.3-4.3,2.3-8.8,3.4-13.4c0.1,0.5,0.2,0.7,0.3,1c0-0.4,0.1-0.8,0.1-1.1
		c0.3,0.4,0.4,0.8,0.5,1.2c0.8,3.6,1.7,7.3,2.5,10.9c0.4,1.8,1,3.7,1.1,5.5c0.3,6.8,0.4,13.6,0.6,20.4c0.3,10.2,0.5,20.4,0.8,30.6
		c0.2,8.9,0.4,17.9,0.6,26.8c0,1.7,0.1,3.3,0.2,5c0.6-2.4,0.9-4.8,1.3-7.2c1.5-10.1,2.9-20.1,4.4-30.2c1.9-13.1,3.9-26.2,5.7-39.3
		c0.7-5,0.7-5,4.1-8.7c0.9-1,1.7-1.9,2.6-2.8c0.4-0.5,0.8-1,1.3-1.6c1.5,3.1,3,6,4.4,8.9c0.3,0.6,0.4,1.3,0.4,2
		c-0.8,6.8-1.7,13.6-2.6,20.4c-0.2,1.8-0.5,3.5-0.7,5.3c1.5-6.4,3-12.9,4-19.4c0.7-4.3,2.1-8,5.5-10.8c0.9-0.7,1.5-1.6,2.3-2.4
		c0.2-0.2,0.5-0.4,0.8-0.7c0.7,3.1,1.3,6.1,1.9,9.1c0.1,0.5,0.2,1.1,0.1,1.7c-2.1,12.8-4.3,25.6-6.4,38.3
		c-2.1,12.5-4.2,24.9-6.2,37.4c-0.2,1.3-0.4,2.6-0.6,3.9c0.9-2.2,1.6-4.3,2.3-6.5c6-19,12.1-38,18.1-57c0.2-0.7,0.5-1.4,1-2
		c2.2-2.4,4.6-4.8,6.9-7.2c0.2-0.2,0.4-0.3,0.6-0.4c0.5,3.1,1,6.1,1.6,9.1c0.3,1.3,0.1,2.4-0.3,3.6c-6.2,19.4-12.3,38.7-18.5,58.1
		c-0.1,0.4-0.2,0.9-0.4,1.3c0.3-0.3,0.5-0.7,0.7-1.1c5.1-12.2,10.2-24.4,15.1-36.7c1.2-3,2.8-5.6,5.5-7.5c1.3-0.9,2.5-2.1,3.8-3.1
		c0.2-0.2,0.5-0.3,0.9-0.6c0.4,3,0.8,5.9,1.2,9c2.2-2.9,4.2-5.5,6.4-8.3c0.4,2.1,0.8,3.9,1.1,5.7c0.6,3.7,1.5,7.3,0.7,11.3
		c-3.2,15.6-6.1,31.2-9.1,46.9c-0.5,2.8-1.1,5.7-1.6,8.5c0.4-0.3,0.6-0.7,0.8-1.1c8.1-16.1,16.3-32.3,24.5-48.4
		c0.3-0.7,1-1.3,1.6-1.8c2.9-1.9,5.8-3.8,8.7-5.7c0.3-0.2,0.7-0.4,1.1-0.7c0,4.2,0,8.2,0,12.2c0,1.1-0.3,2.2-0.7,3.2
		c-12.4,26-24.8,52-37.2,78c-0.2,0.4-0.4,0.9-0.6,1.3c0.5-0.4,0.8-0.8,1.1-1.3c11.4-17.3,22.7-34.6,34.1-51.8
		c0.5-0.7,1.1-1.3,1.9-1.7c3.3-1.8,6.6-3.5,10-5.2c0.3-0.1,0.6-0.2,1-0.4c-1.2,3.9-2.3,7.6-3.5,11.3c-0.3,0.9-0.6,1.8-1.1,2.6
		c-11.2,17.2-22.5,34.3-33.7,51.5c-0.2,0.3-0.4,0.7-0.6,1c0.4,0,0.6-0.2,0.8-0.4c14.4-12.3,28.9-24.5,43.2-36.8
		c2.6-2.2,5.2-3.8,8.6-4.2c2.1-0.2,4.2-0.8,6.5-1.2c-1.8,3.7-3.5,7.1-5.3,10.6c-0.2,0.4-0.5,0.7-0.8,0.9
		c-6.8,5.9-13.7,11.8-20.5,17.6c-0.3,0.2-0.6,0.4-0.9,0.5c0.1,0.1,0.2,0.3,0.3,0.4c2.2-0.2,4.5-0.3,6.8-0.5c-0.7,2-1.3,3.8-2,5.7
		c-0.1,0.3-0.4,0.6-0.6,0.9c-7.8,8.1-15.6,16.2-23.4,24.3c-1.3,1.4-2.6,2.7-3.9,4.1c0.4,0,0.6-0.1,0.7-0.3
		c9.3-8.2,18.5-16.4,27.8-24.7c1.3-1.1,2.6-2,4.2-2.5c1.5-0.5,3-1.1,4.7-1.7c-0.7,2.2-1.2,4.1-1.8,6c-0.3,0.8-0.7,1.6-1.3,2.1
		c-9.8,8.9-19.6,17.7-29.5,26.5c-1.1,0.9-2.1,1.9-3.1,2.9c0.5,0,0.9-0.2,1.2-0.4c7.7-5.2,15.5-10.3,23.2-15.5
		c2.2-1.5,4.5-2.7,7.3-3.1c2-0.3,4-0.8,6.3-1.2c-1.2,2.8-2.2,5.3-3.3,7.8c-0.3,0.6-0.7,1.2-1.2,1.6c-12.8,9.7-25.6,19.4-38.4,29.1
		c-0.7,0.5-0.9,1-0.9,1.8c0.3,4.3,0.5,8.5,0.7,12.8c0.1,1.9,0.2,3.8,0.4,5.7c1,0.1,2-0.1,2.7,0.2c1,0.4,1.7,0.4,2.2-0.7
		c1.3,0.8,2.5,1.6,3.8,2.4c1.6-2.2,3.2-4.4,4.7-6.5c0.2-0.2,0.2-0.6,0.2-0.9c-0.4-2.4,0.6-3.4,3-3.1c1.1,0.1,2.1,1.2,2.2,2.6
		c0.1,1.2-0.5,2-1.6,2.4c-0.4,0.1-0.9,0.3-1,0.6c-1,2.3-2,4.6-3,6.8c1.5,1.2,2.8,2.4,4.2,3.5c-0.8,1.2-1.5,2.4-2.2,3.4
		c-0.3,0.4-0.9,0.7-1.5,1.2c0.5,1.6,1.2,3.5,1.6,5.5c0.4,1.9,1.6,2.8,3.3,3.3c2.7-3.2,6.1-5.5,9.5-7.8c0.9-0.6,1.3-1.2,1.4-2.3
		c0.1-1.8,1.2-2.7,3-2.8c0.5,0,1-0.1,1.5-0.2c1-0.1,3.2,0.8,3.4,1.8c0.3,1.3,0.8,2.5-0.1,3.9c-0.9,1.3-1.6,2.6-3.5,2.2
		c-0.9-0.2-1.5,0.3-2.1,1c-0.8,1-1.7,1.9-2.8,2.7c-2.1,1.6-4.4,3-6.6,4.6c-0.3,0.2-0.7,0.8-0.6,1.1c0.5,1.4,0.9,2.8,1.8,3.9
		c0.5,0.6,0.5,1.1,0.6,1.8c0.3,2.2-0.2,4.3-0.3,6.5c0,0.7,0.2,0.9,0.9,1c1.1,0.1,2.1,0.2,3.3,0.3c-0.1,1.8-0.2,3.6-0.3,5.4
		c-2.8-0.2-2.8,1.6-2.7,3.5c0,0.2-0.1,0.5,0,0.7c0.1,0.9,0.3,1.7,0.4,2.7c3-1.3,5.8-2.5,8.5-3.7c-0.7-2-0.3-2.8,1.7-3.3
		c0.4-0.1,0.8-0.4,1.2-0.3c1.2,0.3,2.6,0.5,3.5,1.2c0.6,0.5,0.9,2.1,0.5,2.7c-0.7,1-1.4,2.4-3,2.3c-1.3,0-2.5,0.3-3.6,0.9
		c-1.6,0.8-3.2,1.6-4.8,2.4c-2.9,1.4-2.9,1.4-2,4.4c0.1,0.4,0.2,0.8,0.3,1.2c1,2.9,2.1,5.8,3.2,8.8c1-0.7,1.9-1.4,2.8-2
		c-0.2-0.6-0.4-1-0.6-1.6c1.5-0.6,3-1.1,4.4-1.6c1,1.4,1.9,2.8,2.8,4.1c-0.9,1.2-1.9,2.4-2.8,3.7c-0.5-0.4-0.9-0.7-1.4-1.2
		c-0.9,0.9-1.7,1.9-2.7,2.7c-0.6,0.5-0.7,1-0.4,1.7c2,5.2,3.9,10.4,5.8,15.6c0.4,1,0.7,1.9,1.1,3c-0.5,0-0.9,0.1-1.2,0.1
		c-11.3,0-22.7,0-34,0c-0.5,0-1,0.1-1.5,0.2c-2.4,0-4.9,0-7.3,0c-0.4-0.1-0.8-0.1-1.2-0.1c-10.5,0-21,0-31.4,0
		C629,454.7,627.9,454.8,626.8,454.9z M532.7,327.2c0-0.1,0-0.2,0-0.2c-3-0.3-6.1-0.5-9.1-0.8c-0.8-0.1-1.7-0.2-2.3,0.2
		c-2.2,1.5-4.2,3.1-6.3,4.7c2.1-1,4-2.2,6-3.3c0.6-0.3,1.3-0.6,2-0.6C526.2,327.2,529.4,327.2,532.7,327.2z M658.2,307.3
		c0.2,0.1,0.3,0.3,0.5,0.4c3.5-3.9,7-7.7,10.5-11.6c-0.1-0.1-0.2-0.1-0.3-0.2C665.4,299.7,661.8,303.5,658.2,307.3z M508.2,340.9
		c0.5,1.7,1,3.5,1.4,5.3c0.8-0.2,1.4-0.3,1.8-0.4C512.5,342.7,509.8,342.2,508.2,340.9z M495.8,383.7c-0.8,0.4-1.4,0.7-2,1.1
		c0.3,0.7,0.5,1.4,0.8,2.1c0.1,0,0.2,0,0.3,0C495.1,385.9,495.4,384.9,495.8,383.7z M589.3,138.9
		C589.4,138.8,589.4,138.8,589.3,138.9c0.1-2,0.1-4,0.1-6c0,0-0.1,0-0.1,0C589.3,134.9,589.3,136.9,589.3,138.9z"/>
	<path class="st1" d="M638,457c1.1-0.1,2.1-0.1,3.2-0.1c10,0,20,0,29.9,0c0.4,0,0.8,0.1,1.2,0.1C660.9,457,649.5,457,638,457z"/>
	<path class="st2" d="M548.4,332.6c-3.1,0-6.2,0-9.3,0c-0.6,0-1.3,0.3-1.9,0.6c-1.9,1.1-3.7,2.2-5.7,3.2c2-1.5,4-3.2,6-4.6
		c0.5-0.4,1.5-0.3,2.2-0.2c2.9,0.2,5.8,0.5,8.7,0.7C548.4,332.5,548.4,332.5,548.4,332.6z"/>
	<path class="st2" d="M667.9,313.2c3.4-3.7,6.8-7.4,10.2-11c0.1,0.1,0.2,0.1,0.2,0.2c-3.3,3.8-6.7,7.5-10,11.3
		C668.3,313.5,668.1,313.3,667.9,313.2z"/>
	<path class="st2" d="M525.1,345.9c1.6,1.2,4.1,1.8,3.1,4.7c-0.4,0.1-1,0.2-1.7,0.4C526,349.3,525.5,347.6,525.1,345.9z"/>
	<path class="st2" d="M513.2,387.7c-0.4,1.2-0.6,2.1-0.9,3.1c-0.1,0-0.2,0-0.3,0c-0.2-0.7-0.5-1.3-0.7-2
		C511.9,388.4,512.5,388.1,513.2,387.7z"/>
	<path class="st2" d="M602.3,149c0-2,0-3.9,0-5.9c0,0,0.1,0,0.1,0C602.4,145.1,602.4,147,602.3,149C602.4,149,602.4,149,602.3,149z"
		/>
	<g>
		<path class="st3" d="M524.4,192.2l-7.4-9.6l-1.3,10.2l11.4,62.6L503,205.5l-11.6-8.5v14.7l37.9,79.3l-35.2-53.5l-12-7.6l1.8,10.2
			l37,58.8l-43.7-40.1l-14.3-6.2l3.6,10.7l22.3,20.5l-6.2-1.8l1.3,6.2l14.7,13.8l-0.4,2.2l-17.9-13.6l-5.8-1.3l2.2,5.3l37.9,33.9
			l-33-20.3l-8.7-3l3.8,7.7l38.5,30.7l2-11.6l8.5-5.4l10.2,0.8l1.8,31.8l52.7-1.4l-2-229.4l-4.5,18.3l-0.9,80.6L571,148l-7.6-8
			l-5.8,11.1l-7.4-9.4l-2.9,12l15.6,77.5l-22-65.3l-7.6-7.6l-0.4,10.7l18.7,62.4l-18.7-42.8l-7.1-5.8L524.4,192.2z"/>
		<path class="st3" d="M643.6,188.6l7.9-6.7l1.1,9l6.1-8.2l2.3,12.6l-11,58.9l24.8-50.3l10.4-6.9v13.5l-37.6,80.7l35.2-54.8
			l11.6-6.2l-3.8,12.8l-33.9,52.9l46.2-40.2l10.7-2.2l-5.2,10.7l-21.3,18.7l7-0.6l-2,5.9l-29.1,31l31.6-28.7l6.7-2.5l-2.1,7.1
			l-33.9,31.2l28.4-19.4l9.6-2l-3.5,8.6l-38.5,29.9l-0.6-10l-11.4-7.7l-9.1,0.8l-1.7,32.5l-48.4-1.3l-1.5-229.4l3.9,17.3l2,83
			l11.6-81.1l6.9-7.9l4.7,9.7l-3.9,30.5l5.7-29.5l7-7.7l2.1,9.9l-13.1,80.3l20.3-65.4l7.6-8.1l1.8,10.7l-19.5,62.8L643.6,188.6z"/>
		<path class="st4" d="M513.3,361.1l3.6,0.6l-12.8,90.1H490h-12.3l11.2-32.8l8.6-29.4l6.5-22l4.5-4.5L513.3,361.1z M664.7,362.3
			l-5.8,0.5l15.3,89h14.6h11.8l-11.5-31.6l-8.6-29.4l-6.5-22l-4.5-4.5L664.7,362.3z"/>
		<path class="st5" d="M588.1,451.8h-98.2l20.1-58.3l4.5-24.1l0.2-35.8l17.4-0.3l-2.4,57h59.2L588.1,451.8z"/>
		<path class="st6" d="M529.9,377.3c1.5,0,115.7-0.9,115.7-0.9l2.2,15.1l-119.1,0.4L529.9,377.3z"/>
		<path class="st7" d="M650.2,326.5l-9.5,0.4l5,6.7l15-0.2L650.2,326.5z"/>
		<path class="st8" d="M640.7,327l-2.2,32.4l7.8,19.2l-0.5-44.9L640.7,327z"/>
		<path class="st8" d="M433.3,128.2"/>
		<path class="st8" d="M433.3,128.2"/>
		<path class="st9" d="M546.1,236.8l-0.8-1.9l-3.5-0.2l-2.1,2.1l1.7,2.6l1.6,0.2l2-0.8L546.1,236.8z"/>
		<path class="st10" d="M609.9,357.9l9.8,0.4l35.2-42.4l6.7,5.1l2.2-2.2l-6.9-6.9l10.7-14l1.7-1l0.3-1.4l-0.7-1.7l-1.5-0.5l-1.3,0.6
			l-0.8,1.9l-11.8,12.9l-7.2-6.7l-3.1,3.6l5.8,4.7L609.9,357.9z"/>
		<path class="st10" d="M623,236.7l2.6-0.3l3.7,1.3l-1.3,2.9l-1.9,2.3l-1.2,18.9l11.9,4.6v4.6l-11.8-1.1l-14.9,88.5l-8.8-0.3
			l14.9-89.9l-11.8-2l-0.1-3l14.1-1.9l5.3-19.8L623,236.7z M596.8,357.1l-3.3-97.9l5,2.7l-0.7-6.5l-6.9-1.8l-1.3-18.2l2.7-0.8
			l-2.8-2.6l-2.7-0.1l-3,3.5l2.2,0.1l0.2,18.6c0,0-7.5,2.7-7.6,3s0.7,5.5,0.7,5.5l5.1-2.7l3.6,97.3L596.8,357.1z M567.4,358.2
			l6.2-0.3l-14.4-90.1l9.1-1.6l-1.2-3.7l-9.8,0.8l-2.6-18.6l1.8-0.8l-2.2-3.5l-6.8,1.6l-0.1,4.2l2.2-0.7l3.2,18.5l-10.5,1.9l1,3.8
			l9.2-1L567.4,358.2z M559.4,354.4l-2.2-15.3l-24.1-39.2l4.8-3.1l-1-2.4l-6.3,2.6l-11.5-15.6l0.9-0.7l-2.3-2.8l-2.6,1.7l1.4,4.1
			l1.1-0.6l9.5,16l-5,4.6l1.3,2.2l5-2.8L559.4,354.4z"/>
		<path class="st11" d="M588.7,322.8l-3.3,0.7l-4.1,1.8l-2.3,1.8l-0.2,2.9h7.5l1.3,27.6l8.2-0.1l0.1-28.2h6.9l0.4-2.9l-5.2-3
			l-4.8-0.7l-0.7-16.3l0.8-1l0.1-1.5l-2.2-1.4l-1.6-0.1l-1.8,0.8l-1.1,1.3l0.7,1.6l0.8,0.6L588.7,322.8z M613.8,358.2l9.3-50.2
			l-8.6-1.3l1.1-6.4l10.6,1.7l4.9-21.8l-1.9-0.5l5.2-5.7l2.2,7.1h-1.5l-4.2,21.6l9.7,1.8l-0.9,6.6l-9.9-2.1l-8.2,49L613.8,358.2z"/>
		<path class="st11" d="M577.4,357.9l5.9-0.2l-4.1-74l8.3-0.7l-0.7-6.8l-8.2,0.7l-4.3-25.4l1.9-0.6l-0.4-3.4l-7.6,0.6l0.4,3.4
			l2.4-0.1l0.9,26l-9.4,1.2l0.9,6.4l9.4-1L577.4,357.9z"/>
		<path class="st11" d="M567.7,300.4l-2.2-5.6l-8.5,0.7l-2.7-10.7l-0.9-4l-3.1,0.2l2.2,16l-10,3.3l-0.4,4.5l11.1-2.2l6.8,55.8
			l7.5-0.3l-9-55.7L567.7,300.4z"/>
		<path class="st12" d="M598.8,357.7l8.2,0.1l1.6-64.3l2.9-0.2l3.3-6.2l-8.7-0.7l-0.7-22.9h2.2l0.9-6.7H600l-0.2,6.7h3.6l-1.6,22.7
			l-9.6,0.9l2,5.1l4.2,1.1L598.8,357.7z"/>
		<path class="st13" d="M530.1,377.6l115.6-0.7l-6.9-18.1l-48.6-1.1l-52.2,1.5L530.1,377.6z"/>
		<path class="st6" d="M588.6,391.9l0.2-14.5h56.8l1.1,13.6L588.6,391.9z"/>
		<path class="st7" d="M649.4,325.6l-9.5,1l5.2,7.1l15.8-0.2L649.4,325.6z"/>
		<path class="st5" d="M664.3,394.8l16.9,57h-93.3l0.2-60.1l57.7-0.5l-0.7-57.6l15.9-0.2L664.3,394.8z"/>
		<path class="st8" d="M640,326.6l-2.1,32.8l7.7,17.5l-0.5-43.3L640,326.6z M538.2,359.3l-2.1-32l-4.6,6.2l-1.7,44.5L538.2,359.3z"
			/>
		<path class="st7" d="M514.7,333.5l9.5-7.4l12.5,1l-4.8,6.5L514.7,333.5z"/>
		<path class="st3" d="M549.3,451.8l-4.1-43.7l4.6-10.8l4.2,9.8l5.2,44.7H549.3z M576.9,451.8l-1.5-41.9l4.3-13.9l5,12l3,43.8H576.9
			z M604.1,407.4l-3.9,8.8l2,33.6l8.5-0.1l-2.4-34.7L604.1,407.4z"/>
		<path class="st14" d="M632,401.4l3,1.8l0.4,3.7l8.5,1l-0.3,3l-7.3-0.4l-1.5,7.6l-3.7-0.3l0.4-6.5l-7.9-1.9l0.7-3.1l6.4,0.7
			L632,401.4z M537.8,414l-4.2-0.6h-5.2l-0.1-3.5l4.5,0.1l1.9-2.1l-0.1-8.2l-1.8-2.1l0.4-2.4l1.9-0.4l2.4,0.3l1.5,2.8l-1.6,1.8
			l0.7,10.4l5.6-1.3l0.7,3.7L537.8,414z M564.5,425.3l-0.7-9.4l-0.5-2l-3.4,0.1l-0.4-4l4-0.3l0.1-8.3l-1.3-1.5V398l2.1-0.6l2.2,1
			l0.1,1.8l-0.9,1.2l0.1,7.6l5.8,1.8l3.1,1.2l-0.6,3.1l-6.8-0.3l1,9.7L564.5,425.3z M596.2,451.8h-3.9l-0.9-34.2l-3.9-3.3v-1.8
			l4.5,0.3v-13.5l-3-0.4l0.1-2.1l8,0.3l-0.1,2.5l-3.1-0.1l0.7,12.8l6.7,1l-1.3,3.4l-4.9,1L596.2,451.8z M613.8,451.8h-6.9l0.6-41.8
			l-2.8-0.4l1.9-4.9l2.5-0.1l-0.1-6.8l-1.6-0.4v-1.9l5.5,0.3l-0.4,1.8l-1.5,0.3l0.4,6.8l1.9,0.1l2.4,4.5l-2.7,0.3L613.8,451.8z"/>
		<path class="st15" d="M494,403.8l-3.9-9.9c0,0,3.6-0.4,3.5-1.2c-0.1-0.8-6.7-21.7-6.7-21.7l5.8-0.9l6.8,18.8l-4.3,15.1L494,403.8z
			"/>
		<path class="st16" d="M496.5,451.8l4.8-46l4.1-9.5c0,0,3.5,7,3.7,7.8s-2,47.7-2,47.7H496.5z M512.3,451.8c0,0,1.2-52.4,1.5-52.7
			c0.3-0.3,5.5-7.5,5.5-7.5l5.6,7.4l0.5,52.8L512.3,451.8L512.3,451.8z"/>
		<path class="st15" d="M545.9,451.8l-5.4-37.8l-5.1-6.6l-5.2,8.1l1.9,36.2L545.9,451.8z M549.2,451.8l-3.9-27.9l0.9-9.7l6.5,7.4
			l6.9,30.2H549.2z M567,451.8h9l-0.1-3.6h2.3l-0.2-4.5l-3.7-0.2l-2.3-10.6l0.9-0.6l-0.9-3.9l-5.1,0.4l0.1,3.1l1.1,0.2l0.7,11.6
			l-5.5,0.7l0.3,4.2l2.7-0.1L567,451.8z"/>
		<path class="st15" d="M594,440.2l-4.9,0.3v11.2h-7.3l-0.1-10.1l-4.2-0.2l-2.6-3.8h8.1l0.8-13.1l-1.1-2.3l0.2-2.6l2.7-2l2.3,2.8
			l0.4,1.8l-1,2l0.4,12.9l6.8,0.3v1.6L594,440.2z M605.3,451.8h-7.1l-0.4-2.1l-4.5-1.9v-1.9l5.5,0.6l1.6-11.8l-1.1-0.6l0.7-5.5
			l6.8,1l-0.8,5.9l-1.3-0.2l-0.3,11.6l6.2,1.9l-0.4,1H606L605.3,451.8z M638.4,451.8h-7.9l-0.5-31l-3-0.4l-0.4-5.3l5.5-0.2l0.1-12.9
			l-2.7-0.2l0.4-7.6l7.5,0.3l-0.1,7.6h-1.2l-0.2,12.4l4.2,0.1l0.3,6.3l-2.5,0.4L638.4,451.8z"/>
		<path class="st17" d="M686.1,451.8l-9.1-31.9l-6.7-8.8l-2.2,13.1l7.4,27.5L686.1,451.8L686.1,451.8z"/>
		<path class="st18" d="M524.5,408.2l-6.8-13.5l2.1-35.2l-2.8-0.1v-4.6h3.1l0.9-11.3l-2.4-0.3l0.6-7l8.3,0.1l0.1,7.7l-3-0.3l-0.4,11
			l4.6,0.3l-0.3,3.9l-3,0.4L524.5,408.2z"/>
		<path class="st15" d="M627,451.8l-1.8-40.3l-5.3-5.1l-5.5,5.6l-1,39.9L627,451.8z"/>
		<path class="st19" d="M555.6,415.5l1.3,14.7l5.2,13l2.8-5.9l-3.1-21.7h3.2l-0.1-4.5l-4.7-1l-1-9.5l2.4-0.2l-0.8-6.1l-6.5,0.1
			l-1,6.6l1.9-0.3l0.9,10l-4.2,1.2l-0.2,3.8L555.6,415.5z"/>
		<path class="st17" d="M650.6,440.4c0-0.6-0.1-18.3-0.1-18.3l-3.7-4.8l-4.6,4.9l-1.5,29.5h10.2L650.6,440.4z M647.2,346.1l0.3,5.3
			l2.1,0.2l2.1,51.7l7.8,12.8l1.1-3.1l-3.2-61.6l1.9-0.3l-0.6-5.3l-3.2-0.2l-0.7-4.5l0.6-1.4l-0.3-1.7l-1-1.2l-2.1-0.1l-1.3,1.3v2.3
			l1.6,1.2l-0.3,4.3L647.2,346.1z M692.1,434.2l4.9-4.9l1.2,1.2l2.7-3.6l-2.7-4l-4.2,1.6l0.7,1.5l-5.9,4.3l-1.2-3l-4.5,3.3l6.1,11
			l4-5L692.1,434.2z M682.3,410.1l-3.1-2.7l-3.6-0.7l-1.2,1.9l5.3,6.1l-4.6,1.8l3.3,6.8l2.5-2.7l1,5l4.3-1.3l-1.5-7.4l12-6.2h2.4
			l2.4-2.4l-0.6-2.7l-2.8-1.2l-3.4,1l-0.4,1.8l0.6,0.9l-9.5,4.2l-1.2,0.5L682.3,410.1z"/>
		<path class="st17" d="M685.1,399.3l4,0.4l-0.3,5.2l-2.4,0.6l-1,13.4l-3.3-3.4l-2.7-17.7l0.7-7.6l5.3,0.6L685.1,399.3z
			 M662.6,375.7l4.5-6.7l-3.1-2.2l3.3-4.9l3.6,2.4l4.8-6.8l-0.4-1.6l0.9-1.8l2.4-0.1l1.5,1l0.4,1.8c0,0-0.4,1.8-0.9,1.9
			c-0.4,0.1-1.5,0.4-1.5,0.4l-3,7.1l4,3.4l-2.7,4.3l-3.7-1.8l-5.2,7.4L662.6,375.7z"/>
		<path class="st3" d="M501.7,349.6l1.3,5.7l2.7-0.6l2.2,11l6.9-3.3l-0.2-16.8l-1.9,0.4l-1.6-6l-5.7-4.2l2.4,11.9L501.7,349.6z"/>
		<path class="st16" d="M505.9,378.7l2.2,3.7l-2,11l-6.5-10.9l-3.6,2l-2.7-3.7l4.3-3.3l-5.3-12.4l-1.2,0.6l-3.3-4.3l6.8-3.5l2.7,4.8
			l-1.1,0.9l6.6,10.6l5.6-3.2l2,4.3L505.9,378.7z M486.5,396.4l-4.5,4.5l-15.8-2.6l-0.8,3.5l14.1,7.1l0.7,6.9l5.5-0.6l0.3-3.2
			l9.9,3.3l1.6-11.5l-8.2-2.8l1.2-1.7L486.5,396.4z"/>
		<path class="st16" d="M492.1,429.9l-2.1,6.8l-8.9-7.4l-1.9,2.7l-5.3-4.7l3.3-3.7l-8.4-9l-1.3,1.1l-3-2.6l4.5-4.5l3,2.8l-1.2,1.2
			l9.6,7.6l3.5-3l4.1,4.5l-1.7,1.7L492.1,429.9z"/>
		<path class="st16" d="M433.3,128.2"/>
		<path class="st20" d="M691.9,370.3l-1.2,1.8l-0.3,2.2l-3.4,2.4l-3.1,2.4l-2.2,1.9l-1.5,1.8l-2.8-1.6l-2.8-1.2l-2.5-0.9l0.1,3.7
			l3.4,1.8l2.8,2.7l2.2,4.3l0.6,4.5l4.5-0.9L685,391l-2.1-4.9l5.3-3.6l3.3-2.5l1.9-2.4l3.3-0.1l1.9-3.1l-0.4-2.8l-2.2-1.8
			L691.9,370.3z"/>
		<path class="st16" d="M667.1,451.8l-10.3-44.3c0,0-5.2-7.4-5.2-6.9c0,0.4-1.8,8.8-1.8,8.8l9,42.5L667.1,451.8z"/>
		<path class="st21" d="M565.2,436l-4.9-5.6l40.7-27.5l1.6-4.9l-4.3-0.7l-41.4,28.5l-4.3-5.8l-1.9,1.2l0.4,9.1l-9.7,8.2l-1.8,0.1
			l-1.6,0.9l0.1,2.1l1.5,1.6l1.8-0.1l1-1.8l11.1-8.3l10.4,5L565.2,436z"/>
		<path class="st21" d="M655.9,441.9l-2.2,0.3l-13.2-7.3l1.8-5.5l-3.1-2.2l-0.9,2.7l-0.7,2.8l-52.9-25.5l-6.5-0.6l0.9,3.9l56.3,28.8
			l-1.3,2.8l-2.7,1.9l0.9,1.8l3-1.3l1.9-1.8l1.5-2.7l13.5,5.5l1.3,2.4l2.4,0.9l2.2-1.2l1.2-2.5l-0.9-2.2L655.9,441.9z"/>
		<path class="st22" d="M474.2,306.3l5.7,3.3l34.7,22.4l1.8-1.1l-36-22.3L474.2,306.3z M475.8,290.3l3.7,2.4l22.3,17.8l-3.5-4.9
			l-18-14.1L475.8,290.3z M489.2,284.8l-5.5-1.5l5.3,4.2l3.3,0.9L489.2,284.8z M464.9,254.5l55.3,45.9L477,260.1L464.9,254.5z
			 M483,231.6l33.7,42.6l-22.9-35.1L483,231.6z M500.6,209.1l-7.6-8.5l8.5,6.2l29.4,61.9L500.6,209.1z M527.3,299.4l2.3-0.2l0.7-1.8
			l6.2-2.5l0.3,1l-13.5,8.7l-0.5-0.7L527.3,299.4z M517.5,278.6l-1.8,1.3l0.5,1.1l2.1-1.5L517.5,278.6z M553.1,298.9l-10.3,3.7
			l0.3-1.9l9.9-3l4.7-1l7.2-0.8l0.7,1.9l-7.6,0.1L553.1,298.9z M586.4,278.5l-8,0.5l-1.9,1.4l-3.9-1.3l-8.7,1.4l-0.2-1.3l9.1-1.1
			l3.3,0.5l2.3-1l7.9-0.8L586.4,278.5z M555,242.8l-7.1,1.3l0.1-1.5l5.9-1.3L555,242.8z"/>
		<path class="st23" d="M566.6,263.2l0.4,1.4l-23.6,3.4l-0.3-1.3l10.3-1.9l4.3-0.7L566.6,263.2z"/>
		<path class="st22" d="M575.2,248.4l-6,0.2l0.2,1.3l6-0.4L575.2,248.4z M607.1,259.3l-5.7,0.2l0.1-1.7h5.9L607.1,259.3z M593.6,288
			l9-0.6l2.3,0.7c0,0,0.7-0.7,1-0.7s7.6,0.2,7.6,0.2l-0.9,2l-6.1-0.4l-1.9,0.9l-1.9-1.6l-8.4,0.8L593.6,288z M603.6,327.8l0.2-1.2
			l-7.6-2.3l-3-0.6h-4.7l-5.1,1.2l-4.8,3l1.4,0.8l4.6-2.9l4.8-1l3.9-0.1L603.6,327.8z M592.7,304.4l-0.8,1l-1.4-1.6l-2.8,0.7
			l1.2-1.3h1.9L592.7,304.4z M615.9,303.5l0.2-1.9l23.3,3.7l-0.3,2.1L615.9,303.5z M631.6,278.4l2.7-2.7l0.8,3.9L631.6,278.4z
			 M590.4,234.6l-4.8,0.1l1.4-1.8l1.7-0.1L590.4,234.6z M580,260.1l-0.3-2l7.1-3.3l3.1-0.3l8.5,2.6v1.8l-8.2-2.8l-3.5-0.2L580,260.1
			z"/>
		<path class="st24" d="M608.7,263c0.8-0.1,9.7-1.1,9.7-1.1l6.2,0.6l12,4l-0.4,1.6l-11.7-4.2l-6.2-0.3l-9.7,1.2L608.7,263z"/>
		<path class="st22" d="M624.1,236.9l2.3-0.4l1.1,0.3l0.2,1.9l-3.1-0.4L624.1,236.9z M646.7,302.8l6.6,6.1l9.4,9l-0.6,0.9
			l-16.5-14.3L646.7,302.8z M667.1,293.9l1.7-0.1l1,1.3l-0.3,1.3l-1.6-0.7L667.1,293.9z M517.8,189l-0.2-3.3l6.9,8l-0.2,2.2
			L517.8,189z M530.9,191.9l-4-6l5.1,4l19.6,46.1L530.9,191.9z"/>
		<path class="st25" d="M645.4,377.2v-1.6L531,375.9l-0.8,1.9L645.4,377.2z"/>
		<path class="st22" d="M556.1,154.1L551,145l6.5,8.2l18,80L556.1,154.1z M568.3,149.6l-4-7.4l5.7,6.2l12.1,79.5L568.3,149.6z
			 M540.3,166.1l-6-5.7l4.7,6.4l22.9,67L540.3,166.1z M640.3,327.1l9.1-0.4l11.2,6.4l-11.1-7.4l-9.6,1.1L640.3,327.1z"/>
		<path class="st26" d="M508.8,419.2l-1.5-15.7l-1.8-3.6l-4.5,6.8l4.5-10.1l3.9,6.5L508.8,419.2z"/>
		<path class="st25" d="M602.4,398.4l-4.2-1l-41.3,28.4l0.4,0.8l40.9-28.5L602.4,398.4z M541.8,439.2l-0.4-0.7l9.8-8.1l0.6,0.8
			L541.8,439.2z M550.8,422.6l-0.2-1.4l1.9-1.2l0.7,0.9L550.8,422.6z M579.3,406.7l4.8,0.1l-1.3,1.1L579.3,406.7z M590,410l1.4-0.5
			l45.8,23.4l-0.1,1.1L590,410z M638.7,428.6l0.4-1.2l3,2.1l-0.4,1.2L638.7,428.6z M640.4,436.1l13.2,7.1l2.7-0.2h2l-2.4-0.8
			l-2.4,0.1l-12.9-7.1L640.4,436.1z"/>
		<path class="st26" d="M554.5,396.8l0.4-2.1h5.6l0.2,2.1H554.5z M560.1,410.1l-3.8,0.5L552,412l0.1,1.1l12.9-0.5l-0.1-1.4
			L560.1,410.1z"/>
		<path class="st25" d="M466.2,399.4l0.2-1.1l15.6,2.6l-0.3,1.4L466.2,399.4z"/>
		<path class="st26" d="M485.8,397.4l3.6,3.7c0,0,1.4-1.6,1-1.8c-0.4-0.2-3.7-3-3.7-3L485.8,397.4z M490.3,403.3l0.5-1.6l6.8,2.2
			l-0.3,2L490.3,403.3z"/>
		<path class="st25" d="M469.6,409.5l-4.3,4.4l-0.7-0.6l4.4-4.5L469.6,409.5z M474.8,428.2l-0.9-0.9l9.8-10l1.1,1.1L474.8,428.2z"/>
		<path class="st26" d="M491.2,396.4l-0.4-2l8-4l-0.4,2.2L491.2,396.4z"/>
		<path class="st25" d="M486.8,370.9l5.8-0.9l1,2.6l-6.1,0.5l-0.4-1.2"/>
		<path class="st26" d="M489.6,363.1l-1.1-1.6l6-3.1l0.7,1.3L489.6,363.1z M494.8,382.7l-1.4-1.9l14.8-10l0.9,1.9L494.8,382.7z"/>
		<path class="st25" d="M507.2,366.1l-3.2,1.5l-0.9,3.5l2.4-3l4.7-1.8l4.4-1.6l0.3-2.2L507.2,366.1z M503.9,351.9l-0.2-1.3l11.4-3.8
			v1.8L503.9,351.9z"/>
		<path class="st26" d="M530.1,415.6l5.2-8l-3.9,8.2l-0.7,10.7L530.1,415.6z M539.3,415.1l-2.1-5.4l3.3,4.3l1.7,12.6L539.3,415.1z
			 M546.9,416.7l-1.6,5.6l0.9-8l3.9,4.5L546.9,416.7z M576.3,439.9l-0.4-1.6l18.7-0.7l-0.7,1.3L576.3,439.9z M583.2,420.7l1.6-1.9
			l0.9-1l2.4,3.3l-2.4-1.6L583.2,420.7z M600.8,431.2v-1.3l4.9,0.9l-0.4,1.3L600.8,431.2z M649.7,422.4l0.7,13.7v-13.8l-3.6-4.7
			l-4.6,4.8l-0.3,5.8l0.6-5.3l4.2-4.7L649.7,422.4z M517.7,397.6l-2.7,6.5l-1.5,41.3l-1.2,0.9l1.2-42.5l3.9-9.5l7.1,14l0.3,23.2
			l-1.8-22.6L517.7,397.6z"/>
		<path class="st25" d="M684.7,432.1l-0.7-1.2l3.1-2.4l0.9,1.7L684.7,432.1z M695,424.9l0.9,1.8l1.8-1.1l-0.2-1.3L695,424.9z"/>
		<path class="st26" d="M666.9,364.8l0.2-1.1l10,6.2l-0.4,1.1L666.9,364.8z"/>
		<path class="st25" d="M648.1,348l-0.1-1.4l10-0.2l0.1,1.4L648.1,348z M682.3,387.3l-2.6-4.1l-5.6-2.8L673,382l4.7,1.6l3.6,3.8h1
			V387.3z M681.7,382.5l1.1,0.4l8-5.6l-1.1-1.3l-4.5,2.7L681.7,382.5z M697.1,372.6l-1.5-1.9l-3.3,0.3l-1,2l2.9-0.9l2.2,2.7
			L697.1,372.6z"/>
		<path class="st26" d="M627.3,417v-1.4l12.2-0.4l-0.1,1.6L627.3,417z M630.2,396.9v-1.3l6,0.2v1.3L630.2,396.9z M626,427.1
			l-0.8-15.7l-5.3-5.1l-5.3,5.6l-0.3,9.1l1.1,0.5l0.7-8.4l3.8-4.5l4,3.8l1.1,14L626,427.1z M670,430.8l-2-6.4l2.2-13l6.7,8.8
			c0,0,3.3,11.7,2.2,9.7s-3.8-10-3.8-10l-4.5-5.8l-0.9,8.9L670,430.8z M651.4,409l3.6,24.1l-5.1-23.8l1.8-8.8l5.3,7.1l7.6,32.5
			l-8.7-30.5l-3.1-5.6L651.4,409z M675.2,407.2l-0.1,1.6l3.9,0.8l3.1,4l2.9,8.7l-0.6-4.8l-1.3-4.6l-4.3-4.9L675.2,407.2z"/>
		<path class="st25" d="M685.9,414.5l-0.7-1l8.9-4.1l0.2,0.8L685.9,414.5z M695.5,406l2.4-0.7l2.4,1.2l-2.7-0.1l-1.4,0.9l-0.7,1.4
			l-0.6-1.4L695.5,406z M670.5,373.5l-2.1,0.1l-1,1.9l-0.4-1.3l1-1.9l1.2,0.2L670.5,373.5z"/>
		<path class="st27" d="M693.4,310.9l-26.6,16.4l26.3-18.5l8.2-1.8L693.4,310.9z M663.3,319.7l30.8-27.9l5.5-2.1l-1.5,2.2l-3.3,0.8
			L663.3,319.7z M690.9,285.6l-4.3,0.1l-7.6,5.2l7.3-6.7l6.1-0.5L690.9,285.6z M710.3,257.2l-7.2,1.9l-45.9,37.3l45.5-39.4l9-2
			L710.3,257.2z M682.8,237.7l-33.9,53.1l35.6-51.4l7.9-6.8L682.8,237.7z M675,205.3l8.7-5.7l-7.4,7.4l-28.4,55.1L675,205.3z
			 M657.8,184.7l-1.2,4.2l-3.2,5.1l-1.5-0.9L657.8,184.7z M645.6,191.5l4.5-7l-6.2,5.3l-15.5,35.6L645.6,191.5z M636,168.5l6.2-7
			l1.6,9.2l-0.8,2.4l-1.5-9.5l-4.5,5.6l-21.7,63.4L636,168.5z M619.8,151.4l5.8-6.9l-3.2,7.7l-16.3,72.9L619.8,151.4z M608.6,149.4
			l3.9-9.5l-5.8,8.4l-12.4,82.2L608.6,149.4z M585.8,148.6l-2.5,78l1-78.3l3.9-16.5l3,14.5l2.2,79.7l-3.8-79.4l-1.4-11.2
			L585.8,148.6z"/>
		<path class="st26" d="M667.4,394.9l-2.8-0.5l-1-3.7l1.5,0.6l3.3,2.2l3.4,3.3l2.1,2.8l-0.3,1.5l-2.5-3.4L667.4,394.9z"/>
		<path class="st25" d="M517.4,355.2c0.2,0.1,10.9,0.2,10.9,0.2l-0.1,1.2l-10.8-0.1L517.4,355.2z"/>
		<path class="st22" d="M519.5,339.6l0.1-2.6l7.1,0.2l0.1,2.4H519.5z"/>
		<path class="st25" d="M676.3,356l-0.3,1.3l-0.4-1.4l0.6-1.3l1.9-0.1l1.5,0.7l-1.9,0.1h-1.2L676.3,356z M651.9,338.4l-0.6,1.6v-1.9
			l1-1h1.6l0.9,1.1l-1.3-0.6h-1.2L651.9,338.4z"/>
		<path class="st28" d="M664.9,297.2l-0.2-0.6L654,308.1l0.7,0.6L664.9,297.2z M524.5,327.6l-9.5,5.8l9.1-7.1l12.4,1L524.5,327.6z"
			/>
	</g>
</g>
</svg>
